<svg version="1.2" xmlns="http://www.w3.org/2000/svg" viewBox="0 0 530 70" width="530" height="70">
	<title>새 프로젝트</title>
	<style>
		.s0 { fill: #ffffff } 
		.s1 { fill: #757575 } 
		.s2 { fill: none } 
		.s3 { fill: #4285f4 } 
		.s4 { fill: #34a853 } 
		.s5 { fill: #fbbc05 } 
		.s6 { fill: #ea4335 } 
	</style>
	<g id="Google-Button">
		<g id="9-PATCH">
		</g>
		<path id="Shape 6 copy" class="s0" d="m-13-41h556v152h-556z"/>
		<path id="Sign in with Google" class="s1" aria-label="Sign in with Google"  d="m141.1 33.4q-4.9-1.3-7.1-3.1-2.2-1.8-2.2-4.4 0-3 2.7-5 2.7-2 7-2 3 0 5.3 1 2.3 1 3.6 2.8 1.3 1.8 1.3 3.9h-3.8q0-2.3-1.7-3.6-1.6-1.3-4.7-1.3-2.7 0-4.3 1.1-1.6 1.1-1.6 3 0 1.6 1.5 2.7 1.5 1 5.1 1.9 3.5 0.9 5.5 2 2.1 1.1 3 2.5 1 1.4 1 3.4 0 3.1-2.7 4.9-2.7 1.9-7.3 1.9-2.9 0-5.5-1-2.5-1-3.9-2.8-1.4-1.7-1.4-3.9h3.8q0 2.3 1.9 3.6 1.9 1.4 5.1 1.4 3 0 4.6-1.1 1.6-1.1 1.6-3 0-1.9-1.5-2.9-1.4-1-5.3-2zm18.4-7.6v18.9h-3.6v-18.9zm-3.9-5q0-0.8 0.5-1.3 0.5-0.6 1.6-0.6 1.1 0 1.6 0.6 0.6 0.5 0.6 1.3 0 0.8-0.6 1.3-0.5 0.5-1.6 0.5-1.1 0-1.6-0.5-0.5-0.5-0.5-1.3zm8.5 14.3q0-4.4 2.3-7 2.3-2.6 6-2.6 3.9 0 6.1 2.4l0.2-2.1h3.3v18.5q0 3.7-2.4 5.8-2.5 2.1-6.6 2.1-2.3 0-4.5-0.9-2.2-0.8-3.4-2.4l1.9-1.9q2.4 2.6 5.7 2.6 2.7 0 4.2-1.4 1.5-1.3 1.5-3.7v-1.6q-2.2 2.2-6 2.2-3.7 0-6-2.7-2.3-2.7-2.3-7.3zm3.6 0.4q0 3.2 1.5 5 1.5 1.9 4.1 1.9 3.5 0 5.1-2.8v-8.7q-1.7-2.7-5-2.7-2.7 0-4.2 1.8-1.5 1.9-1.5 5.5zm19.4-9.7h3.5l0.1 2.4q2.4-2.7 6.3-2.7 6.8 0 6.8 6.7v12.5h-3.6v-12.5q0-2-1.1-3-1-1-3.2-1-1.7 0-3.1 0.8-1.3 0.9-2 2.3v13.4h-3.7zm35.4 0v19h-3.7v-19zm-3.9-5q0-0.8 0.5-1.3 0.6-0.5 1.6-0.5 1.1 0 1.6 0.5 0.6 0.5 0.6 1.3 0 0.8-0.6 1.3-0.5 0.6-1.6 0.6-1 0-1.6-0.6-0.5-0.5-0.5-1.3zm9.3 5h3.5l0.1 2.4q2.4-2.7 6.4-2.7 6.7 0 6.8 6.8v12.5h-3.7v-12.5q0-2.1-1-3.1-1-1-3.2-1-1.8 0-3.1 0.9-1.4 0.8-2.1 2.2v13.5h-3.7zm45.2 0l5.1 14.5 4.1-14.5h3.6l-6.2 18.9h-2.9l-5.2-14.3-5.1 14.3h-2.9l-6.2-18.9h3.6l4.2 14.2 5-14.2zm20 0v18.9h-3.6v-18.9zm-4-5q0-0.8 0.6-1.4 0.5-0.5 1.6-0.5 1.1 0 1.6 0.5 0.6 0.6 0.6 1.4 0 0.8-0.6 1.3-0.5 0.5-1.6 0.5-1.1 0-1.6-0.5-0.6-0.5-0.6-1.3zm10.7 0.4h3.6v4.6h4v2.5h-4v11.7q0 1.2 0.6 1.8 0.5 0.5 1.8 0.5 0.6 0 1.7-0.2v2.6q-1.4 0.4-2.8 0.4-2.4 0-3.7-1.3-1.2-1.3-1.2-3.8v-11.7h-3.9v-2.5h3.9zm15.1-3.4v10.3q2.4-2.7 6.3-2.7 6.7 0 6.8 6.8v12.5h-3.6v-12.5q-0.1-2.1-1.1-3-1-1-3.2-1-1.8 0-3.1 0.8-1.4 0.9-2.1 2.2v13.5h-3.6v-26.9zm40.5 27.4c4 0 7.3-1.3 9.2-3.1v-11h-9.7v2.8h6.3v6.8c-1.2 1-3.3 1.6-5.4 1.6-6.3 0-9.8-4.2-9.8-10.8 0-6.6 3.8-10.7 9.8-10.7 3 0 4.9 1.2 6.4 2.5l2-2.1c-1.7-1.6-4.4-3.3-8.5-3.3-7.8 0-13.6 5.2-13.6 13.7 0 8.5 5.6 13.6 13.3 13.6zm24 0c5.3 0 10.1-3.7 10.1-10.2 0-6.5-4.8-10.3-10.1-10.3-5.4 0-10.2 3.8-10.2 10.3 0 6.5 4.8 10.2 10.2 10.2zm0-2.7c-3.8 0-6.4-3-6.4-7.5 0-4.5 2.6-7.5 6.4-7.5 3.8 0 6.3 3 6.3 7.5 0 4.5-2.5 7.5-6.3 7.5zm24 2.7c5.3 0 10.1-3.7 10.1-10.2 0-6.5-4.8-10.3-10.1-10.3-5.4 0-10.2 3.8-10.2 10.3 0 6.5 4.8 10.2 10.2 10.2zm0-2.7c-3.8 0-6.3-3-6.3-7.5 0-4.5 2.5-7.5 6.3-7.5 3.8 0 6.3 3 6.3 7.5 0 4.5-2.5 7.5-6.3 7.5zm22.9 11.2c6.7 0 11-3.1 11-6.8 0-3.2-2.5-4.6-7.6-4.6h-4.3c-2.9 0-3.8-0.8-3.8-2.1 0-1.1 0.6-1.7 1.4-2.3 1 0.4 2.2 0.6 3.3 0.6 4.4 0 7.9-2.6 7.9-6.7 0-1.7-0.7-3.1-1.7-4h4.4v-2.6h-7.6c-0.8-0.2-1.8-0.5-3-0.5-4.5 0-8.3 2.7-8.3 7 0 2.3 1.4 4.2 2.9 5.2v0.2c-1.1 0.7-2.5 2-2.5 3.6 0 1.5 0.9 2.6 2.1 3.2v0.1c-2.1 1.2-3.3 2.8-3.3 4.4 0 3.4 3.7 5.3 9.1 5.3zm0-17.4c-2.6 0-4.7-1.8-4.7-4.6 0-2.9 2.1-4.6 4.7-4.6 2.5 0 4.6 1.8 4.6 4.6 0 2.8-2.1 4.6-4.6 4.6zm0.5 15.2c-4 0-6.3-1.4-6.3-3.5 0-1.1 0.6-2.3 2.2-3.3 0.9 0.2 2 0.3 2.8 0.3h3.8c2.9 0 4.4 0.6 4.4 2.4 0 2.1-2.7 4.1-6.9 4.1zm18.2-6.3c1 0 1.6-0.1 2.2-0.3l-0.6-2.5c-0.4 0.1-0.5 0.1-0.7 0.1-0.6 0-1.1-0.4-1.1-1.4v-24.9h-3.6v24.6c0 2.8 1.1 4.4 3.8 4.4zm16.1 0c2.9 0 5.3-0.9 7.2-2l-1.3-2.2c-1.6 1-3.4 1.6-5.5 1.6-4.1 0-7-2.7-7.3-6.8h14.8c0.1-0.5 0.2-1.2 0.2-1.9 0-5.6-3.2-9.2-8.7-9.2-5.1 0-9.9 4-9.9 10.3 0 6.4 4.7 10.2 10.5 10.2zm-6.9-11.8c0.5-3.8 3.2-6 6.3-6 3.4 0 5.4 2.1 5.4 6z"/>
		<g id="btn_google_light_normal">
			<g id="button">
				<g id="button-bg">
					<path id="path-2" class="s0" d="m10.8-6c0-1.1 0.9-2 2-2h93.3c1.1 0 2 0.9 2 2v86c0 1.1-0.9 2-2 2h-93.3c-1.1 0-2-0.9-2-2z"/>
					<path id="path-2" class="s2" d="m10.8-6c0-1.1 0.9-2 2-2h93.3c1.1 0 2 0.9 2 2v86c0 1.1-0.9 2-2 2h-93.3c-1.1 0-2-0.9-2-2z"/>
					<path id="path-2" class="s2" d="m10.8-6c0-1.1 0.9-2 2-2h93.3c1.1 0 2 0.9 2 2v86c0 1.1-0.9 2-2 2h-93.3c-1.1 0-2-0.9-2-2z"/>
					<path id="path-2" class="s2" d="m10.8-6c0-1.1 0.9-2 2-2h93.3c1.1 0 2 0.9 2 2v86c0 1.1-0.9 2-2 2h-93.3c-1.1 0-2-0.9-2-2z"/>
				</g>
			</g>
			<g id="logo_googleg_48dp">
				<path id="Shape" fill-rule="evenodd" class="s3" d="m80.5 37.5q0-2.2-0.4-4.2h-20.6v7.9h11.8c-0.5 2.5-2.1 4.6-4.4 6.1v5h7.1c4.1-3.5 6.5-8.7 6.5-14.8z"/>
				<path id="Shape" fill-rule="evenodd" class="s4" d="m59.5 57.2c5.9 0 10.8-1.8 14.5-4.9l-7.1-5c-2 1.2-4.5 1.9-7.4 1.9-5.7 0-10.5-3.6-12.3-8.4h-7.3v5.3c3.6 6.6 11 11.1 19.6 11.1z"/>
				<path id="Shape" fill-rule="evenodd" class="s5" d="m47.2 40.8c-0.4-1.2-0.7-2.5-0.7-3.8 0-1.3 0.3-2.6 0.7-3.8v-5.3h-7.3c-1.5 2.7-2.3 5.8-2.3 9.1 0 3.3 0.8 6.4 2.3 9.1z"/>
				<path id="Shape" fill-rule="evenodd" class="s6" d="m59.5 24.8c3.2 0 6.1 1 8.3 3l6.3-5.8c-3.8-3.2-8.7-5.3-14.6-5.3-8.6 0-16 4.6-19.6 11.2l7.3 5.3c1.8-4.8 6.6-8.4 12.3-8.4z"/>
				<path id="Shape" class="s2" d="m37.6 16.8h43.8v40.4h-43.8z"/>
			</g>
			<g id="handles_square">
			</g>
		</g>
	</g>
</svg>