<svg version="1.2" xmlns="http://www.w3.org/2000/svg" viewBox="0 0 400 400" width="400" height="400">
	<title>새 프로젝트</title>
	<style>
		.s0 { fill: none;stroke: #000000;stroke-width: 20 } 
	</style>
	<path id="레이어 1" class="s0" d="m200 387c-103.4 0-187-83.6-187-187 0-103.4 83.6-187 187-187 103.4 0 187 83.6 187 187 0 103.4-83.6 187-187 187z"/>
	<path id="모양 1" class="s0" d="m199.5 211c-44 0-79.5-35.5-79.5-79.5 0-44 35.5-79.5 79.5-79.5 44 0 79.5 35.5 79.5 79.5 0 44-35.5 79.5-79.5 79.5z"/>
	<path id="모양 2" class="s0" d="m199 212.5c68.7 0.7 144.6 60.9 136.5 105-7.2 39.1-69.7 65-139 64.5-68.7-0.6-130.1-27.2-137-66-7.9-44.4 70.2-104.3 139.5-103.5z"/>
</svg>