<svg version="1.2" xmlns="http://www.w3.org/2000/svg" viewBox="0 0 456 152">
	<title>loginbutton</title>
	<style>
		.s0 { fill: #94a3b8 } 
		.s1 { fill: #ffffff } 
	</style>
	<g id="anonymous">
		<path id="Shape 8" class="s0" d="m0 0h456v152h-456"/>
		<path id="Layer" class="s1" d="m84.4 83.9c-24.2 0-44 14.6-45.1 33h90.1c-1.1-18.4-20.9-33-45-33z"/>
		<path id="Layer" class="s1" d="m82.3 79.7c-13.2 0-23.8-11.4-23.8-25.6 0-14.1 10.6-25.6 23.8-25.6 13.2 0 23.9 11.5 23.9 25.6 0 14.2-10.7 25.6-23.9 25.6z"/>
		<path id="비회원 로그인" class="s1" aria-label="비회원 로그인"  d="m189.7 56v40.4h3.7v-40.4zm-27 3.4v27.2h19v-27.2h-3.7v10.6h-11.7v-10.6zm3.7 13.6h11.7v10.6h-11.7zm60.6-12.1h-10.4v-4.9h-3.7v4.9h-10.5v3h24.6zm-18.5 12.7c0-2.8 2.5-4.6 6.2-4.6 3.7 0 6.2 1.8 6.2 4.6 0 2.8-2.5 4.6-6.2 4.6-3.7 0-6.2-1.8-6.2-4.6zm8.1 7.4c4.7-0.6 7.8-3.4 7.8-7.4 0-4.5-3.9-7.4-9.7-7.4-5.7 0-9.7 2.9-9.7 7.4 0 4.1 3.1 6.9 7.9 7.5v4.3c-4 0.1-7.9 0.2-11.3 0.2l0.5 3.1c7.5 0 17.2-0.2 26.2-1.6l-0.3-2.8c-3.7 0.5-7.6 0.8-11.4 1zm14-25.1v40.4h3.7v-40.4zm32.9 23.8v2.8h8.1v4.1h3.7v-30.7h-3.7v23.8zm-8.2-19.4c3.8 0 6.4 1.7 6.4 4.2 0 2.6-2.6 4.3-6.4 4.3-3.8 0-6.4-1.7-6.4-4.3 0-2.5 2.6-4.2 6.4-4.2zm0 11.3c5.9 0 10-2.8 10-7.1 0-4.2-4.1-7-10-7-5.9 0-9.9 2.8-9.9 7 0 4.3 4 7.1 9.9 7.1zm-1.4 13.6h3.7v-8c3.6-0.2 7.3-0.6 10.9-1.2l-0.3-2.6c-8.6 1.1-18.6 1.2-26 1.2l0.5 3c3.3 0 7.2 0 11.2-0.2zm-2.3 7.2v-8.8h-3.7v11.8h28.6v-3zm65.7-4.1v-7.6h12.9v-3h-24.9v-6.5h23.9v-12.3h-27.6v3h24v6.3h-23.9v12.5h11.8v7.6h-16.4v3h36.7v-3zm48.8-24.1c0 5 0 11.1-1.6 19.3l3.7 0.4c1.5-8.7 1.5-14.5 1.5-19.7v-4h-27.6v3h24zm-27.9 23.1v3h36.4v-3zm74.1-31.4h-3.7v29.5h3.7zm-28.6 12.7c0-3.9 3-6.7 6.9-6.7 4 0 7 2.8 7 6.7 0 4-3 6.8-7 6.8-3.9 0-6.9-2.8-6.9-6.8zm17.5 0c0-5.8-4.6-9.9-10.6-9.9-6 0-10.5 4.1-10.5 9.9 0 5.8 4.5 10 10.5 10 6 0 10.6-4.2 10.6-10zm-11.2 23.7v-10h-3.7v13h27.2v-3z"/>
	</g>
</svg>