<svg version="1.2" xmlns="http://www.w3.org/2000/svg" viewBox="0 0 400 400" width="400" height="400">
	<title>login-icon-svg</title>
	<style>
		.s0 { fill: none;stroke: #000000;stroke-width: 20 } 
		.s1 { fill: none;stroke: #000000;stroke-width: 10 } 
	</style>
	<path id="레이어 1" class="s0" d="m200 387c-103.4 0-187-83.6-187-187 0-103.4 83.6-187 187-187 103.4 0 187 83.6 187 187 0 103.4-83.6 187-187 187z"/>
	<path id="모양 1" class="s0" d="m161.6 213.6c-24.9 0-45-22.9-45-51.3 0-28.4 20.1-51.3 45-51.3 24.9 0 45.1 22.9 45.1 51.3 0 28.4-20.2 51.3-45.1 51.3z"/>
	<path id="모양 3" class="s1" d="m267 71.5v-0.1 101.6z"/>
	<path id="모양 3 copy" class="s1" d="m319.8 121.2h-101.6z"/>
	<path id="모양 2" class="s0" d="m161.3 214.6c39 0.4 82 39.3 77.4 67.8-4.1 25.2-39.5 41.9-78.8 41.6-38.9-0.4-73.7-17.6-77.6-42.6-4.5-28.7 39.8-67.3 79-66.8z"/>
</svg>