<svg version="1.2" xmlns="http://www.w3.org/2000/svg" viewBox="0 0 400 400" width="400" height="400">
	<title>새 프로젝트</title>
	<style>
		.s0 { fill: #0d36b9 } 
		.s1 { fill: #ffffff } 
	</style>
	<path id="레이어 1" class="s0" d="m200 400c-110.6 0-200-89.4-200-200 0-110.6 89.4-200 200-200 110.6 0 200 89.4 200 200 0 110.6-89.4 200-200 200z"/>
	<path id="URL" class="s1" aria-label="URL"  d="m46.9 214.4v-77.3h16.8v75.3q0 19.9 7.3 28.7 7.2 8.7 23.4 8.7 16.1 0 23.3-8.7 7.2-8.8 7.2-28.7v-75.3h16.9v77.3q0 24.3-12.1 36.6-11.9 12.4-35.3 12.4-23.5 0-35.6-12.4-11.9-12.3-11.9-36.6zm185.1-11.5q5.4 1.8 10.5 7.8 5.1 6 10.3 16.4l17 33.9h-18l-15.9-31.8q-6.1-12.4-12-16.5-5.7-4.1-15.6-4.1h-18.3v52.4h-16.8v-123.9h37.9q21.2 0 31.7 8.9 10.4 8.8 10.4 26.8 0 11.7-5.4 19.4-5.4 7.7-15.8 10.7zm-20.9-52.1h-21.1v44h21.1q12.1 0 18.2-5.5 6.3-5.7 6.3-16.5 0-10.9-6.3-16.4-6.1-5.6-18.2-5.6zm80.2 110.2v-123.9h16.8v109.8h60.4v14.1z"/>
</svg>